<svg width="124" height="118" viewBox="0 0 124 118" fill="none" xmlns="http://www.w3.org/2000/svg" xmlns:xlink="http://www.w3.org/1999/xlink">
<path d="M124,59C124,91.585 96.242,118 62,118C27.758,118 0,91.585 0,59C0,26.415 27.758,0 62,0C96.242,0 124,26.415 124,59Z" fill="#F0F2E4" stroke="#00142D" stroke-width="5" stroke-miterlimit="3.999327"/>
<path d="M39.877,40.811C38.986,41.464 38.792,42.716 39.445,43.607C40.098,44.498 41.35,44.691 42.241,44.038L39.877,40.811ZM113.128,41.524C113.945,42.267 115.21,42.207 115.953,41.39C116.697,40.573 116.636,39.308 115.819,38.565L113.128,41.524ZM42.241,44.038L50.211,38.198L47.847,34.971L39.877,40.811L42.241,44.038ZM50.211,38.198C69.307,24.208 95.614,25.598 113.128,41.524L115.819,38.565C96.898,21.359 68.478,19.857 47.847,34.971L50.211,38.198Z" transform="rotate(39.807 77.766 27)" fill="#00142D"/>
</svg>
